<?xml version="1.0" standalone="no"?>
<!DOCTYPE svg PUBLIC "-//W3C//DTD SVG 20010904//EN"
 "http://www.w3.org/TR/2001/REC-SVG-20010904/DTD/svg10.dtd">
<svg version="1.0" xmlns="http://www.w3.org/2000/svg"
 width="648.000000pt" height="648.000000pt" viewBox="0 0 648.000000 648.000000"
 preserveAspectRatio="xMidYMid meet">

<g transform="translate(0.000000,648.000000) scale(0.100000,-0.100000)"
fill="#000000" stroke="none">
<path d="M3116 4280 c-295 -105 -381 -470 -163 -690 163 -163 414 -168 580
-11 217 205 166 547 -100 678 -68 33 -85 37 -167 40 -73 3 -103 -1 -150 -17z
m286 -52 c158 -73 248 -242 218 -409 -21 -119 -99 -223 -208 -276 -51 -25 -67
-28 -162 -28 -96 0 -110 3 -164 29 -154 76 -239 244 -206 409 15 77 40 127 93
184 80 87 171 124 292 120 61 -2 94 -10 137 -29z"/>
<path d="M3050 3880 c0 -223 1 -230 20 -230 19 0 20 7 20 230 0 223 -1 230
-20 230 -19 0 -20 -7 -20 -230z"/>
<path d="M3230 3880 c0 -223 1 -230 20 -230 19 0 20 7 20 230 0 223 -1 230
-20 230 -19 0 -20 -7 -20 -230z"/>
<path d="M3410 3879 c0 -214 1 -230 18 -227 15 3 17 23 20 231 2 222 2 227
-18 227 -19 0 -20 -6 -20 -231z"/>
<path d="M3755 3246 c-33 -50 20 -104 70 -72 30 20 33 56 7 79 -26 24 -59 21
-77 -7z"/>
<path d="M4597 3252 c-24 -27 -21 -59 8 -78 51 -33 104 21 71 71 -20 30 -56
33 -79 7z"/>
<path d="M1182 2843 l3 -408 30 0 30 0 5 108 5 107 69 55 c62 49 71 54 85 41
9 -8 70 -80 136 -160 118 -143 140 -161 186 -154 20 3 4 25 -129 183 -84 99
-152 183 -152 186 0 4 53 49 118 102 64 52 128 104 142 116 l25 20 -45 1 c-43
0 -53 -6 -240 -156 l-195 -156 -3 261 -2 261 -35 0 -35 0 2 -407z"/>
<path d="M2540 3145 l0 -105 -35 0 c-32 0 -35 -2 -35 -30 0 -27 3 -30 34 -30
l34 0 4 -217 c3 -189 6 -223 22 -257 24 -48 86 -79 149 -74 38 3 42 6 45 32 3
27 2 28 -26 23 -49 -10 -85 5 -104 44 -15 29 -18 64 -18 242 l0 207 75 0 75 0
0 30 0 30 -75 0 -75 0 0 105 0 105 -35 0 -35 0 0 -105z"/>
<path d="M3532 2843 l3 -408 33 -3 32 -3 0 410 0 411 -35 0 -35 0 2 -407z"/>
<path d="M1995 3044 c-11 -3 -41 -12 -67 -20 -43 -14 -48 -19 -48 -45 0 -16 1
-29 3 -29 1 0 26 9 55 20 75 29 193 28 252 -2 47 -24 90 -88 90 -135 0 -23 -1
-23 -142 -23 -79 0 -160 -5 -180 -10 -113 -32 -163 -163 -103 -266 37 -64 130
-107 229 -108 62 0 82 4 134 30 l61 30 3 -25 c2 -22 8 -26 33 -26 l30 0 3 190
c1 108 -2 212 -8 240 -25 115 -106 174 -247 180 -43 2 -87 2 -98 -1z m285
-388 l0 -105 -32 -24 c-49 -36 -103 -50 -172 -45 -143 12 -222 109 -171 208
29 56 72 68 243 69 l132 1 0 -104z"/>
<path d="M2982 3035 c-76 -21 -92 -32 -92 -62 0 -28 0 -28 75 1 23 9 74 15
119 16 127 0 193 -44 211 -142 l7 -38 -143 0 c-169 0 -211 -10 -260 -59 -48
-48 -64 -103 -48 -167 25 -96 126 -158 261 -158 55 0 77 5 127 31 l60 31 3
-27 c2 -22 8 -26 33 -26 l30 0 0 210 c0 151 -4 221 -14 248 -18 53 -68 107
-120 130 -58 26 -180 32 -249 12z m318 -378 c0 -117 -2 -121 -80 -156 -89 -40
-224 -19 -279 44 -25 29 -31 44 -31 83 0 102 56 131 253 132 l137 0 0 -103z"/>
<path d="M4110 3031 c-92 -33 -140 -109 -118 -187 18 -68 83 -103 249 -133 81
-15 140 -47 151 -83 13 -37 -13 -93 -54 -117 -73 -45 -212 -37 -299 18 l-49
30 0 -35 c0 -33 4 -37 54 -60 215 -98 461 3 415 171 -18 63 -80 97 -236 130
-131 27 -173 54 -173 109 0 41 32 84 76 102 68 28 198 11 262 -35 40 -28 44
-27 40 12 -7 73 -198 121 -318 78z"/>
<path d="M4937 3039 c-68 -16 -97 -36 -97 -68 l0 -28 43 21 c31 16 65 22 132
24 78 3 96 0 134 -20 55 -28 81 -62 88 -116 l6 -42 -145 0 c-193 0 -251 -21
-289 -104 -59 -130 20 -245 190 -276 82 -15 150 -1 213 42 35 24 38 23 38 -12
0 -27 3 -30 31 -30 l30 0 -3 228 c-3 213 -4 230 -25 269 -13 23 -37 53 -55 66
-65 49 -192 69 -291 46z m311 -386 l-3 -107 -49 -31 c-45 -27 -57 -30 -135
-30 -76 0 -92 3 -132 27 -83 49 -102 138 -42 200 38 40 68 46 226 47 l138 1
-3 -107z"/>
<path d="M3770 2735 l0 -305 30 0 30 0 0 305 0 305 -30 0 -30 0 0 -305z"/>
<path d="M4602 2738 l3 -303 30 0 30 0 0 300 0 300 -33 3 -32 3 2 -303z"/>
</g>
</svg>
